<?xml version="1.0" encoding="UTF-8"?><svg id="a" xmlns="http://www.w3.org/2000/svg" viewBox="0 0 361.44 438.99"><defs><style>.b{stroke-width:7px;}.b,.c{stroke:#4a8dca;stroke-miterlimit:10;}.b,.d{fill:none;}.c{fill:#4a8dca;stroke-width:3px;}</style></defs><circle class="b" cx="181.66" cy="218.16" r="125.85"/><polygon class="d" points="261.79 187.34 288.91 235.18 315.86 187.34 261.79 187.34"/><polygon class="d" points="157.05 53.73 94.98 163.93 219.96 163.93 157.05 53.73"/><polygon class="d" points="233.32 187.34 91.42 187.34 128.12 251.65 270.02 251.65 233.32 187.34"/><polygon class="d" points="45.58 251.65 99.65 251.65 72.52 203.81 45.58 251.65"/><polygon class="d" points="204.39 385.26 266.46 275.05 141.48 275.05 204.39 385.26"/><polygon class="c" points="233.32 187.34 270.02 251.65 128.12 251.65 141.48 275.05 266.46 275.05 288.91 235.18 261.79 187.34 233.32 187.34"/><polygon class="c" points="303.61 261.09 295.66 275.05 311.53 275.05 303.61 261.09"/><polygon class="c" points="157.05 53.73 219.96 163.93 248.51 163.93 157.28 3.04 65.77 163.93 94.98 163.93 157.05 53.73"/><polygon class="c" points="204.39 385.26 141.48 275.05 112.92 275.05 204.16 435.95 295.66 275.05 266.46 275.05 204.39 385.26"/><polygon class="c" points="49.91 163.93 57.83 177.9 65.77 163.93 49.91 163.93"/><polygon class="c" points="288.91 235.18 266.46 275.05 295.66 275.05 303.61 261.09 288.91 235.18"/><polygon class="c" points="128.12 251.65 99.65 251.65 112.92 275.05 141.48 275.05 128.12 251.65"/><polygon class="c" points="94.98 163.93 65.77 163.93 57.83 177.9 72.52 203.81 94.98 163.93"/><polygon class="c" points="233.32 187.34 261.79 187.34 248.51 163.93 219.96 163.93 233.32 187.34"/><polygon class="c" points="233.41 187.26 220.05 163.85 95.07 163.85 81.84 187.34 91.51 187.26 233.41 187.26"/><polygon class="c" points="61.78 251.65 45.58 251.65 72.52 203.81 57.83 177.9 2.58 275.05 69.49 275.05 64.17 263.35 61.78 251.65"/><polygon class="c" points="248.51 163.93 261.79 187.34 309.57 187.34 315.86 187.34 345.55 187.34 358.86 163.93 248.51 163.93"/><path class="c" d="M306.67,203.65l-17.76,31.53,12.44,21.93c3.99-12.27,6.15-25.36,6.15-38.95,0-4.91-.29-9.75-.84-14.51Z"/></svg>